<svg id="Layer_1" enable-background="new 0 0 512.004 512.004" height="512" viewBox="0 0 512.004 512.004" width="512" xmlns="http://www.w3.org/2000/svg"><g><g><path d="m502.004 121.266h-14.179l3.457-5.988c2.762-4.783 1.123-10.899-3.66-13.66-4.781-2.762-10.898-1.123-13.66 3.66l-3.458 5.989-21.93-37.984h6.915c5.523 0 10-4.477 10-10s-4.477-10-10-10h-6.915l7.089-12.279c2.762-4.783 1.123-10.899-3.66-13.66-4.782-2.762-10.899-1.123-13.66 3.66l-7.089 12.279-3.457-5.988c-2.761-4.784-8.878-6.422-13.66-3.66-4.783 2.761-6.422 8.877-3.66 13.66l3.457 5.988h-43.859l3.457-5.988c2.762-4.783 1.123-10.899-3.66-13.66-4.782-2.76-10.899-1.123-13.66 3.66l-3.458 5.988-7.09-12.28c-2.761-4.783-8.878-6.422-13.66-3.66-4.783 2.761-6.422 8.877-3.66 13.66l7.089 12.279h-6.914c-5.523 0-10 4.477-10 10s4.477 10 10 10h6.914l-21.93 37.984-3.457-5.988c-2.761-4.784-8.877-6.423-13.66-3.66-4.783 2.761-6.422 8.877-3.66 13.66l3.457 5.988h-14.18c-5.523 0-10 4.477-10 10s4.477 10 10 10h14.18l-3.457 5.988c-2.762 4.783-1.123 10.899 3.66 13.66 1.575.91 3.294 1.342 4.991 1.342 3.456 0 6.817-1.794 8.669-5.002l3.457-5.988 21.93 37.984h-6.914c-5.523 0-10 4.477-10 10s4.477 10 10 10h6.914l-7.089 12.279c-2.762 4.783-1.123 10.899 3.66 13.66 1.575.91 3.294 1.342 4.991 1.342 3.456 0 6.817-1.794 8.669-5.002l7.09-12.28 3.458 5.989c1.852 3.208 5.213 5.002 8.669 5.002 1.696 0 3.416-.433 4.991-1.342 4.783-2.761 6.422-8.877 3.66-13.66l-3.458-5.988h43.86l-3.458 5.989c-2.762 4.783-1.123 10.899 3.66 13.66 1.575.909 3.294 1.342 4.991 1.342 3.456 0 6.817-1.794 8.669-5.002l3.457-5.988 7.089 12.279c1.852 3.208 5.213 5.002 8.669 5.002 1.696 0 3.416-.433 4.991-1.342 4.783-2.761 6.422-8.877 3.66-13.66l-7.089-12.279h6.915c5.523 0 10-4.477 10-10s-4.477-10-10-10h-6.916l21.93-37.985 3.458 5.989c1.852 3.208 5.213 5.002 8.669 5.002 1.696 0 3.416-.433 4.991-1.342 4.783-2.761 6.422-8.877 3.66-13.66l-3.457-5.988h14.179c5.523 0 10-4.477 10-10 .002-5.524-4.475-10.001-9.998-10.001zm-70.75-37.984 21.93 37.984h-43.86zm-39.251 27.984-21.93-37.984h43.86zm-17.32 10h-43.86l21.93-37.984zm0 20-21.93 37.984-21.93-37.984zm17.32 10 21.93 37.983h-43.859zm17.321-10h43.859l-21.93 37.983z"/><path d="m257.489 397.342-19.719-11.384 11.712-6.762c4.783-2.761 6.422-8.877 3.66-13.66-2.761-4.784-8.877-6.423-13.66-3.66l-11.712 6.762v-65.269l11.712 6.762c1.575.91 3.294 1.342 4.991 1.342 3.456 0 6.817-1.794 8.669-5.002 2.762-4.783 1.123-10.899-3.66-13.66l-11.712-6.762 12.434-7.179c4.783-2.761 6.422-8.877 3.66-13.66-2.761-4.783-8.878-6.423-13.66-3.66l-12.434 7.179v-13.524c0-5.523-4.477-10-10-10s-10 4.477-10 10v13.524l-56.525-32.635 11.713-6.762c4.783-2.761 6.422-8.877 3.66-13.66-2.762-4.784-8.877-6.422-13.66-3.66l-11.712 6.762v-22.77c0-5.523-4.477-10-10-10s-10 4.477-10 10v22.77l-11.712-6.762c-4.782-2.761-10.898-1.122-13.66 3.66-2.762 4.783-1.123 10.899 3.66 13.66l11.713 6.762-56.525 32.635v-13.524c0-5.523-4.477-10-10-10s-10 4.477-10 10v13.523l-19.719-11.385c-4.781-2.762-10.898-1.123-13.66 3.66s-1.123 10.899 3.66 13.66l19.719 11.385-11.713 6.763c-4.783 2.761-6.422 8.877-3.66 13.66 1.852 3.208 5.213 5.002 8.669 5.002 1.696 0 3.416-.433 4.991-1.342l11.712-6.762v65.27l-11.712-6.762c-4.783-2.762-10.899-1.123-13.66 3.66-2.762 4.783-1.123 10.899 3.66 13.66l11.712 6.762-19.719 11.384c-4.783 2.761-6.422 8.877-3.66 13.66 1.852 3.208 5.213 5.002 8.669 5.002 1.696 0 3.416-.433 4.991-1.342l19.719-11.385v13.525c0 5.523 4.477 10 10 10s10-4.477 10-10v-13.525l56.526 32.635-11.713 6.763c-4.783 2.761-6.422 8.877-3.66 13.66 2.761 4.783 8.877 6.42 13.66 3.66l11.712-6.762v22.769c0 5.523 4.477 10 10 10s10-4.477 10-10v-22.769l11.712 6.762c1.575.909 3.294 1.342 4.991 1.342 3.456 0 6.817-1.794 8.669-5.002 2.762-4.783 1.123-10.899-3.66-13.66l-11.713-6.763 56.526-32.635v13.525c0 5.523 4.477 10 10 10s10-4.477 10-10v-13.525l19.719 11.385c1.575.91 3.294 1.342 4.991 1.342 3.456 0 6.817-1.794 8.669-5.002 2.761-4.783 1.122-10.899-3.661-13.661zm-116.243-78.659v-65.268l56.525 32.634zm66.524-15.314v65.269l-56.524-32.634zm-86.524 15.313-56.525-32.635 56.525-32.634zm-10 17.321-56.525 32.635v-65.27zm10 17.32v65.269l-56.525-32.634zm20 0 56.524 32.634-56.524 32.634z"/><path d="m442.103 330.254h-.007c-11.046 0-19.996 8.954-19.996 20s8.958 20 20.003 20 20-8.954 20-20-8.954-20-20-20z"/><path d="m85.102 115.254c11.046 0 20-8.954 20-20s-8.954-20-20-20h-.007c-11.046 0-19.997 8.954-19.997 20s8.958 20 20.004 20z"/><path d="m195.11 154.254c8.284 0 15-6.716 15-15s-6.716-15-15-15h-.007c-8.284 0-14.996 6.716-14.996 15s6.719 15 15.003 15z"/><path d="m325.102 414.254h-.007c-8.284 0-14.996 6.716-14.996 15s6.719 15 15.003 15 15-6.716 15-15-6.715-15-15-15z"/><path d="m210.111 71.254c5.523 0 10-4.477 10-10s-4.477-10-10-10h-.007c-5.523 0-9.997 4.477-9.997 10s4.481 10 10.004 10z"/><path d="m338.111 323.254c0-5.523-4.477-10-10-10h-.007c-5.523 0-9.997 4.477-9.997 10s4.481 10 10.004 10 10-4.477 10-10z"/><path d="m448.111 427.254h-.007c-5.523 0-9.997 4.477-9.997 10s4.481 10 10.004 10 10-4.477 10-10-4.477-10-10-10z"/><path d="m284.183 237.705h-.007c-5.523 0-9.996 4.477-9.996 10s4.48 10 10.003 10 10-4.477 10-10-4.477-10-10-10z"/></g></g></svg>