<svg id="Layer_3" enable-background="new 0 0 64 64" height="512" viewBox="0 0 64 64" width="512" xmlns="http://www.w3.org/2000/svg"><g><path d="m35 33v-2.382l2.553 1.276.895-1.789-2.459-1.229 1.566-1.044-1.109-1.664-2.517 1.678-1.851-.926 3.438-2.063-1.029-1.715-4.529 2.717-1.879-.94 3.438-2.063c.298-.179.483-.505.483-.856s-.185-.677-.485-.857l-3.438-2.063 1.879-.94 4.529 2.717 1.029-1.715-3.438-2.063 1.851-.926 2.517 1.678 1.109-1.664-1.566-1.044 2.459-1.229-.895-1.789-2.551 1.277v-2.382h-2v3.382l-2 1v-4.382h-2v5.382l-2 1v-5.382c0-.369-.203-.708-.528-.882-.323-.174-.721-.154-1.026.05l-4.446 2.964v-2.663l5.641-4.701-1.281-1.536-4.36 3.633v-2.451l2.707-2.707-1.414-1.414-1.293 1.293v-1.586h-2v1.586l-1.293-1.293-1.414 1.414 2.707 2.707v2.451l-4.359-3.633-1.281 1.536 5.64 4.701v2.663l-4.445-2.964c-.307-.205-.702-.224-1.026-.05-.326.174-.529.513-.529.882v5.382l-2-1v-5.382h-2v4.382l-2-1v-3.382h-2v2.382l-2.553-1.276-.895 1.789 2.459 1.229-1.566 1.044 1.109 1.664 2.517-1.678 1.851.926-3.438 2.063 1.029 1.715 4.529-2.717 1.879.94-3.438 2.063c-.298.179-.483.505-.483.856s.185.677.485.857l3.438 2.063-1.879.94-4.529-2.717-1.029 1.715 3.438 2.063-1.851.926-2.517-1.678-1.109 1.664 1.566 1.044-2.459 1.229.895 1.789 2.551-1.277v2.382h2v-3.382l2-1v4.382h2v-5.382l2-1v5.382c0 .369.203.708.528.882.324.173.72.154 1.026-.05l4.446-2.964v2.663l-5.641 4.701 1.281 1.536 4.36-3.633v2.451l-2.707 2.707 1.414 1.414 1.293-1.293v1.586h2v-1.586l1.293 1.293 1.414-1.414-2.707-2.707v-2.451l4.359 3.633 1.281-1.536-5.64-4.701v-2.663l4.445 2.964c.167.112.361.168.555.168.162 0 .324-.039.472-.118.325-.174.528-.513.528-.882v-5.382l2 1v5.382h2v-4.382l2 1v3.382zm-5.943-11-3.1 1.86-3.721-1.86 3.72-1.86zm-4.057-8.131v4.513l-4 2v-3.847zm-10 0 4 2.667v3.847l-4-2zm-4.057 8.131 3.1-1.86 3.72 1.86-3.72 1.86zm4.057 8.131v-4.513l4-2v3.847zm10 0-4-2.667v-3.847l4 2z"/><path d="m61.555 49.832-1.109-1.664-2.81 1.874-2.413-1.034 2.226-1.113c.337-.17.551-.516.551-.895s-.214-.725-.553-.895l-2.226-1.113 2.413-1.034 2.81 1.874 1.109-1.664-1.725-1.15 2.564-1.099-.787-1.838-2.605 1.117v-2.198h-2v3.055l-3 1.286v-3.341c0-.332-.165-.642-.439-.828-.275-.187-.626-.224-.932-.101l-3.629 1.452v-2.905l3.447-1.724-.895-1.789-2.552 1.277v-3.382h-2v3.382l-2.553-1.276-.895 1.789 3.448 1.723v2.905l-3.629-1.452c-.305-.122-.655-.085-.932.101-.274.186-.439.496-.439.828v3.341l-3-1.286v-3.055h-2v2.198l-2.606-1.117-.787 1.838 2.564 1.099-1.725 1.15 1.109 1.664 2.81-1.874 2.413 1.034-2.226 1.113c-.338.17-.552.516-.552.895s.214.725.553.895l2.226 1.113-2.413 1.034-2.81-1.874-1.109 1.664 1.725 1.15-2.564 1.099.787 1.838 2.605-1.117v2.198h2v-3.055l3-1.286v3.341c0 .332.165.642.439.828.168.114.364.172.561.172.126 0 .252-.023.371-.071l3.629-1.452v2.905l-3.447 1.724.895 1.789 2.552-1.277v3.382h2v-3.382l2.553 1.276.895-1.789-3.448-1.723v-2.905l3.629 1.452c.119.048.245.071.371.071.197 0 .393-.058.561-.172.274-.186.439-.496.439-.828v-3.341l3 1.286v3.055h2v-2.198l2.606 1.117.787-1.838-2.564-1.099zm-6.791-2.832-1.95.975-2.276-.975 2.275-.975zm-2.764-5.523v2.721l-3 1.286v-2.807zm-8 0 3 1.2v2.807l-3-1.286zm-2.764 5.523 1.95-.975 2.276.975-2.275.975zm2.764 5.523v-2.721l3-1.286v2.807zm8 0-3-1.2v-2.807l3 1.286z"/><path d="m46.343 16.243 1.414 1.414 3.243-3.243v4.586h2v-4.586l3.243 3.243 1.414-1.414-3.243-3.243h4.586v-2h-4.586l3.243-3.243-1.414-1.414-3.243 3.243v-4.586h-2v4.586l-3.243-3.243-1.414 1.414 3.243 3.243h-4.586v2h4.586z"/><path d="m17.657 47.757-1.414-1.414-3.243 3.243v-4.586h-2v4.586l-3.243-3.243-1.414 1.414 3.243 3.243h-4.586v2h4.586l-3.243 3.243 1.414 1.414 3.243-3.243v4.586h2v-4.586l3.243 3.243 1.414-1.414-3.243-3.243h4.586v-2h-4.586z"/><circle cx="42" cy="22" r="2"/><circle cx="57" cy="32" r="2"/><circle cx="27" cy="52" r="2"/><circle cx="7" cy="39" r="2"/></g></svg>